<svg xmlns="http://www.w3.org/2000/svg" height="40" viewBox="0 0 64 64" width="40" data-name="Layer 2"><path d="M32 9a23 23 0 1023 23A23 23 0 0032 9zm12.912 18.69L38.6 34l-3 3-4.023 4.023a3.332 3.332 0 01-4.714 0l-7.777-7.777a3.333 3.333 0 014.714-4.714l5.421 5.421L40.2 22.977a3.333 3.333 0 014.713 4.713z" fill="#F17B25" data-original="#2EA6FC" data-old_color="#2ea6fc"/><g fill="#2057d1"><path d="M29.222 43a4.3 4.3 0 01-3.064-1.27l-7.777-7.777a4.333 4.333 0 016.128-6.128l4.713 4.714 10.27-10.269a4.332 4.332 0 116.127 6.13l-6.309 6.31a1 1 0 01-1.41-1.417l6.309-6.31a2.331 2.331 0 000-3.3 2.386 2.386 0 00-3.3 0L29.929 34.66a1 1 0 01-1.414 0l-5.421-5.421a2.388 2.388 0 00-3.3 0 2.331 2.331 0 000 3.3l7.777 7.778a2.388 2.388 0 003.3 0l4.029-4.024a1 1 0 011.414 1.414l-4.028 4.023A4.3 4.3 0 0129.222 43z" data-original="#2057D1" class="active-path" data-old_color="#2057D1" fill="#5e0b0f"/><path d="M32 56a24 24 0 1118.194-8.348 1 1 0 11-1.516-1.3A22 22 0 1032 54a21.76 21.76 0 0013.7-4.782 1 1 0 011.246 1.565A23.747 23.747 0 0132 56z" data-original="#2057D1" class="active-path" data-old_color="#2057D1" fill="#5e0b0f"/></g></svg>