<svg id="Layer_3" enable-background="new 0 0 64 64" height="512" viewBox="0 0 64 64" width="512" xmlns="http://www.w3.org/2000/svg"><g><path d="m55 62h-34c-3.314 0-6-2.686-6-6 0-3.314 2.686-6 6-6h34c3.314 0 6 2.686 6 6 0 3.314-2.686 6-6 6z" fill="#534f44"/><path d="m27 46h22v4h-22z" fill="#625d51"/><path d="m44 46h-22c-1.105 0-2-.895-2-2 0-1.105.895-2 2-2h22z" fill="#7f786b"/><path d="m44 42h-22v-12c0-5.523 4.477-10 10-10h10c1.105 0 2 .895 2 2z" fill="#f2c351"/><g><path d="m17.097-4.125h2v20.83h-2z" fill="#9e968d" transform="matrix(.279 -.96 .96 .279 7.011 21.917)"/></g><path d="m5 39 7-28-2.368-7.103c-.377-1.133-1.438-1.897-2.632-1.897-1.194 0-2.255.764-2.632 1.897l-2.368 7.103v28" fill="#f2c351"/><path d="m6 35-1 4h-3v-4z" fill="#9e968d"/><path d="m11.794 11.825.206-.825-2-6 18.422 9.211c2.193 1.096 3.578 3.338 3.578 5.789-2.761 0-5.261 1.119-7.071 2.929l.071.071z" fill="#f7d881"/><path d="m22 39h14c1.105 0 2-.895 2-2v-12c0-1.105-.895-2-2-2h-11l-.071-.071c-1.81 1.81-2.929 4.31-2.929 7.071z" fill="#c7e2fc"/><g><path d="m33 50h2v3h-2z" fill="#7f786b"/></g><g><path d="m29 50h2v3h-2z" fill="#7f786b"/></g><g><path d="m25 50h2v3h-2z" fill="#7f786b"/></g><g><path d="m45 50h2v3h-2z" fill="#7f786b"/></g><g><path d="m41 50h2v3h-2z" fill="#7f786b"/></g><g><path d="m53 50h2v3h-2z" fill="#7f786b"/></g><g><path d="m37 50h2v3h-2z" fill="#7f786b"/></g><g><path d="m21 50h2v3h-2z" fill="#7f786b"/></g><g><path d="m33 59h2v3h-2z" fill="#7f786b"/></g><g><path d="m29 59h2v3h-2z" fill="#7f786b"/></g><g><path d="m25 59h2v3h-2z" fill="#7f786b"/></g><g><path d="m45 59h2v3h-2z" fill="#7f786b"/></g><g><path d="m41 59h2v3h-2z" fill="#7f786b"/></g><g><path d="m37 59h2v3h-2z" fill="#7f786b"/></g><g><path d="m21 59h2v3h-2z" fill="#7f786b"/></g><g fill="#7f786b"><path d="m59.887 59.473-2.475-2.475-1.415 1.415 2.475 2.475c.548-.39 1.026-.868 1.415-1.415z"/><path d="m57.646 56.999h3.265c.054-.326.089-.658.089-.999 0-.342-.035-.674-.09-1h-3.264z"/><path d="m58.472 51.112-2.623 2.623 1.415 1.415 2.624-2.624c-.391-.546-.869-1.024-1.416-1.414z"/><path d="m16.112 59.472c.389.547.867 1.025 1.414 1.415l2.566-2.566-1.415-1.415z"/><path d="m15 56c0 .341.035.673.09.999h3.91v-2h-3.91c-.055.327-.09.659-.09 1.001z"/><path d="m16.113 52.527 2.565 2.565 1.415-1.415-2.565-2.565c-.548.39-1.026.868-1.415 1.415z"/></g><path d="m60 46h-16v-10h13c2.761 0 5 2.239 5 5v3c0 1.105-.895 2-2 2z" fill="#f2c351"/><path d="m60 46h-16v-10h13c2.761 0 5 2.239 5 5v3c0 1.105-.895 2-2 2z" fill="#f2c351"/><g><path d="m46 39h2v4h-2z" fill="#7f786b"/></g><g><path d="m49 39h2v4h-2z" fill="#7f786b"/></g><g><path d="m52 39h2v4h-2z" fill="#7f786b"/></g><path d="m48 36v-4h8v4" fill="#f7d881"/><path d="m49 32v-2c0-2.209 1.791-4 4-4h2v3h-2c-.552 0-1 .448-1 1v2" fill="#cbc3b6"/><g><path d="m53 59h2v3h-2z" fill="#7f786b"/></g><g><path d="m49 50h2v3h-2z" fill="#7f786b"/></g><g><path d="m49 59h2v3h-2z" fill="#7f786b"/></g><path d="m2 39h3l2 2 4-1v-1.882c0-.685.387-1.312 1-1.618.613-.306 1-.933 1-1.618v-.882l2-2 1 2v7.172c0 .53-.211 1.039-.586 1.414l-4.124 4.124c-.826.826-1.946 1.29-3.115 1.29-1.896 0-3.58-1.213-4.179-3.012z" fill="#7f786b"/><g><path d="m6.5 7.999c-.827 0-1.5-.673-1.5-1.499 0-.828.673-1.5 1.5-1.5s1.5.672 1.5 1.5c0 .826-.673 1.499-1.5 1.499zm0-1.999c-.276 0-.5.224-.5.5 0 .275.224.5.5.5.275 0 .5-.224.5-.5s-.225-.5-.5-.5z" fill="#534f44"/></g><g><path d="m27.5 18.999c-.827 0-1.5-.673-1.5-1.5s.673-1.5 1.5-1.5 1.5.673 1.5 1.5-.673 1.5-1.5 1.5zm0-1.999c-.276 0-.5.224-.5.5 0 .275.224.5.5.5.275 0 .5-.224.5-.5s-.225-.5-.5-.5z" fill="#534f44"/></g><path d="m30.781 16.219 2.219-2.219-1-4-4-2-1 2h-3l-.8 1.6 5.222 2.611c.956.478 1.758 1.173 2.359 2.008z" fill="#f2c351"/><path d="m55 59h-34c-1.657 0-3-1.343-3-3 0-1.657 1.343-3 3-3h34c1.657 0 3 1.343 3 3 0 1.657-1.343 3-3 3z" fill="#fff"/><g><path d="m21 55h4v2h-4z" fill="#7f786b"/></g><g><path d="m27 55h6v2h-6z" fill="#7f786b"/></g><g><path d="m35 55h6v2h-6z" fill="#7f786b"/></g><g><path d="m43 55h6v2h-6z" fill="#7f786b"/></g><g><path d="m51 55h4v2h-4z" fill="#7f786b"/></g><g><path d="m26 57.999c-1.103 0-2-.897-2-2s.897-2 2-2 2 .897 2 2-.897 2-2 2zm0-2.001v.002z" fill="#625d51"/></g><g><path d="m34 57.999c-1.103 0-2-.897-2-2s.897-2 2-2 2 .897 2 2-.897 2-2 2zm0-2.001v.002z" fill="#625d51"/></g><g><path d="m42 57.999c-1.103 0-2-.897-2-2s.897-2 2-2 2 .897 2 2-.897 2-2 2zm0-2.001v.002z" fill="#625d51"/></g><g><path d="m50 57.999c-1.103 0-2-.897-2-2s.897-2 2-2 2 .897 2 2-.897 2-2 2zm0-2.001v.002z" fill="#625d51"/></g><path d="m24.929 22.929c-1.81 1.81-2.929 4.31-2.929 7.071v9h5.313c4.434-1.898 7.541-6.299 7.541-11.427 0-1.616-.318-3.156-.88-4.573h-8.974z" fill="#ebf7fe"/></g></svg>