<?xml version="1.0" encoding="iso-8859-1"?>
<!-- Generator: Adobe Illustrator 19.0.0, SVG Export Plug-In . SVG Version: 6.00 Build 0)  -->
<svg version="1.1" id="Capa_1" xmlns="http://www.w3.org/2000/svg" xmlns:xlink="http://www.w3.org/1999/xlink" x="0px" y="0px"
	 viewBox="0 0 512 512" style="enable-background:new 0 0 512 512;" xml:space="preserve">
<path style="fill:#FFA92C;" d="M224.068,146.772v8.623v231.341v8.623c10.202,2.651,20.901,4.068,31.933,4.068
	c11.032,0,21.731-1.417,31.933-4.068v-8.623c0-1.913,0-236.416,0-238.779C267.805,156.095,244.678,156.054,224.068,146.772z"/>
<path style="fill:#F2961D;" d="M224.068,146.772v8.623v231.341v8.623c10.202,2.651,20.901,4.068,31.933,4.068v-8.623V162.506v-8.623
	C244.597,153.702,233.916,151.207,224.068,146.772z"/>
<path style="fill:#E58615;" d="M240.035,152.038c-5.545-1.21-10.891-2.98-15.966-5.266v8.623v231.341v8.623
	c5.2,1.351,10.53,2.377,15.966,3.063V152.038z"/>
<g>
	<path style="fill:#85C2EF;" d="M471.821,512c-4.202,0-7.608-3.406-7.608-7.608v-85.24c0-4.202,3.406-7.608,7.608-7.608
		s7.608,3.406,7.608,7.608v85.24C479.429,508.594,476.023,512,471.821,512z"/>
	<path style="fill:#85C2EF;" d="M408.764,512c-4.202,0-7.608-3.406-7.608-7.608V486.91c0-4.202,3.406-7.608,7.608-7.608
		s7.608,3.406,7.608,7.608v17.482C416.372,508.594,412.966,512,408.764,512z"/>
	<path style="fill:#85C2EF;" d="M40.18,512c-4.202,0-7.608-3.406-7.608-7.608v-85.24c0-4.202,3.406-7.608,7.608-7.608
		s7.608,3.406,7.608,7.608v85.24C47.789,508.594,44.382,512,40.18,512z"/>
	<path style="fill:#85C2EF;" d="M103.238,512c-4.202,0-7.608-3.406-7.608-7.608V486.91c0-4.202,3.406-7.608,7.608-7.608
		s7.608,3.406,7.608,7.608v17.482C110.846,508.594,107.439,512,103.238,512z"/>
</g>
<path style="fill:#585A60;" d="M468.518,243.413h-32.612c-1.635,0-3.004-1.202-3.25-2.818c-5.103-33.57-13.733-38.836-8.645-41.773
	l28.196-16.279c1.58-0.912,2.122-2.933,1.209-4.512l-21.02-36.408c-0.912-1.58-2.932-2.121-4.513-1.209l-28.189,16.275
	c-1.415,0.817-3.2,0.464-4.221-0.811c-21.211-26.483-31.327-26.807-28.398-31.882l16.247-28.142c0.912-1.58,0.371-3.6-1.209-4.512
	l-36.407-21.02c-1.58-0.912-3.6-0.371-4.513,1.209l-2.215,3.836c0.113,31.646-17.46,58.558-42.837,72.287
	c50.245,16.791,86.476,64.191,86.476,120.083c0,69.929-56.689,126.618-126.618,126.618s-126.618-56.689-126.618-126.618
	c0-56.543,37.069-104.413,88.225-120.675c-23.254-13.066-39.611-37.205-41.659-65.081c-0.041-0.569-0.06-1.134-0.09-1.702
	l-5.052-8.75c-0.912-1.58-2.932-2.121-4.513-1.209l-36.407,21.02c-1.58,0.912-2.122,2.933-1.209,4.512l16.014,27.737
	c0.818,1.416,0.463,3.201-0.813,4.222c-10.271,8.215-19.613,17.534-27.855,27.782c-1.023,1.272-2.803,1.622-4.216,0.806
	l-27.689-15.986c-1.58-0.912-3.6-0.371-4.513,1.209l-21.02,36.408c-0.912,1.58-0.371,3.6,1.209,4.512l27.594,15.932
	c1.416,0.818,2.002,2.539,1.407,4.062c-4.732,12.101-8.175,24.842-10.184,38.059c-0.246,1.616-1.615,2.818-3.25,2.818H43.484
	c-1.824,0-3.303,1.479-3.303,3.303v42.04c0,1.825,1.479,3.303,3.303,3.303h31.878c1.634,0,3.003,1.202,3.25,2.818
	c2.009,13.217,5.452,25.957,10.184,38.059c0.595,1.523,0.009,3.245-1.407,4.063l-27.594,15.932c-1.58,0.912-2.121,2.933-1.209,4.512
	l21.02,36.408c0.912,1.58,2.933,2.121,4.513,1.209l27.689-15.986c1.413-0.816,3.194-0.465,4.216,0.806
	c8.242,10.248,17.584,19.567,27.855,27.782c1.277,1.021,1.631,2.806,0.813,4.222l-16.014,27.737c-0.912,1.58-0.371,3.6,1.209,4.512
	l36.407,21.02c1.58,0.912,3.6,0.371,4.513-1.209l16.041-27.782c0.816-1.413,2.532-2.001,4.054-1.41
	c31.813,12.337,40.777,7.358,40.777,13.31v32.193c0,1.825,1.479,3.303,3.303,3.303h42.04c1.825,0,3.303-1.479,3.303-3.303v-32.298
	c0-1.632,1.198-3,2.811-3.249c13.134-2.024,25.795-5.465,37.824-10.179c1.524-0.597,3.247-0.011,4.065,1.406l16.171,28.009
	c0.912,1.58,2.933,2.121,4.513,1.209l36.407-21.02c1.58-0.912,2.122-2.933,1.209-4.512l-16.247-28.142
	c-0.815-1.412-0.466-3.193,0.804-4.216c10.173-8.194,19.428-17.471,27.594-27.667c1.022-1.275,2.806-1.629,4.221-0.812
	l28.189,16.275c1.58,0.912,3.6,0.371,4.513-1.209l21.02-36.408c0.912-1.58,0.371-3.6-1.209-4.512l-28.196-16.279
	c-1.414-0.816-2.001-2.535-1.41-4.057c4.664-11.999,8.064-24.624,10.055-37.717c0.246-1.616,1.615-2.818,3.25-2.818h32.612
	c1.824,0,3.303-1.479,3.303-3.303v-42.04C471.821,244.892,470.342,243.413,468.518,243.413z"/>
<path style="fill:#FFA92C;" d="M289.088,0.312c-2.21-0.928-4.659,0.683-4.659,3.074c0,73.41,0.292,68.954-0.683,70.643
	l-11.25,19.486c-1,1.733-2.863,2.808-4.864,2.808h-20.239c-2.189,0-4.229-1.178-5.324-3.074
	c-11.854-20.53-11.78-19.819-11.78-22.151V3.265c0-2.328-2.381-3.909-4.527-3.009C193.225,13.879,173.105,46.729,175.696,82
	c4.993,67.953,87.282,100.571,137.516,53.702C356.295,95.505,344.204,23.5,289.088,0.312z"/>
<g>
	<path style="fill:#F2961D;" d="M292.655,93.515l11.25-19.486c0.975-1.689,0.683,2.273,0.683-65.127
		c-4.776-3.364-9.957-6.259-15.5-8.591c-2.21-0.928-4.659,0.683-4.659,3.074c0,73.41,0.292,68.954-0.683,70.643l-11.25,19.486
		c-1,1.733-2.863,2.808-4.864,2.808h20.158C289.791,96.323,291.654,95.248,292.655,93.515z"/>
	<path style="fill:#F2961D;" d="M195.854,82c-2.146-29.202,11.287-56.732,34.435-73.077V3.265c0-2.328-2.381-3.909-4.527-3.009
		C193.225,13.879,173.105,46.729,175.696,82c3.305,44.983,43.86,80.881,91.739,75.084C229.142,152.391,198.707,120.825,195.854,82z"
		/>
</g>
<g>
	<path style="fill:#4C4F56;" d="M59.794,182.542l23.866,13.779c5.458-15.511,12.64-30.21,21.33-43.857l-20.873-12.051
		c-1.58-0.912-3.6-0.371-4.513,1.209l-21.02,36.408C57.673,179.61,58.214,181.63,59.794,182.542z"/>
	<path style="fill:#4C4F56;" d="M71.534,267.562c0-8.166,0.472-16.22,1.36-24.148h-29.41c-1.824,0-3.303,1.479-3.303,3.303v42.04
		c0,1.825,1.479,3.303,3.303,3.303h29.45C72.02,284.018,71.534,275.848,71.534,267.562z"/>
	<path style="fill:#4C4F56;" d="M138.112,112.193c11.508-10.966,24.239-20.656,37.958-28.867c-0.041-0.448-0.088-0.894-0.121-1.345
		c-0.041-0.569-0.06-1.134-0.09-1.702l-5.052-8.75c-0.912-1.58-2.933-2.121-4.513-1.209l-36.407,21.02
		c-1.58,0.912-2.121,2.933-1.209,4.512L138.112,112.193z"/>
	<path style="fill:#4C4F56;" d="M83.762,339.093l-23.968,13.838c-1.58,0.912-2.121,2.933-1.209,4.512l21.02,36.408
		c0.912,1.58,2.933,2.121,4.513,1.209l21.033-12.144C96.441,369.282,89.242,354.594,83.762,339.093z"/>
	<path style="fill:#4C4F56;" d="M138.243,423.053l-9.565,16.568c-0.912,1.58-0.371,3.6,1.209,4.512l36.407,21.02
		c1.58,0.912,3.6,0.371,4.513-1.209l6.567-11.375C163.209,444.226,150.081,434.314,138.243,423.053z"/>
	<path style="fill:#4C4F56;" d="M231.678,475.165v5.089c0,1.825,1.479,3.303,3.303,3.303c45.279,0,43.463,0.574,44.812-1.518
		C263.214,481.559,247.108,479.2,231.678,475.165z"/>
</g>
<g>
</g>
<g>
</g>
<g>
</g>
<g>
</g>
<g>
</g>
<g>
</g>
<g>
</g>
<g>
</g>
<g>
</g>
<g>
</g>
<g>
</g>
<g>
</g>
<g>
</g>
<g>
</g>
<g>
</g>
</svg>
