<svg id="Capa_1" enable-background="new 0 0 512 512" height="512" viewBox="0 0 512 512" width="512" xmlns="http://www.w3.org/2000/svg"><g><g fill="#464b5a"><path d="m327 132h-30c-8.284 0-15-6.716-15-15s6.716-15 15-15h30c8.284 0 15 6.716 15 15s-6.716 15-15 15z"/><path d="m497 132h-30c-8.284 0-15-6.716-15-15s6.716-15 15-15h30c8.284 0 15 6.716 15 15s-6.716 15-15 15z"/></g><path d="m437 212h-80c-2.962 0-5.856-.876-8.32-2.52-22.968-15.312-36.68-40.933-36.68-68.536v-43.944c0-8.284 6.716-15 15-15h140c8.284 0 15 6.716 15 15v43.944c0 27.603-13.712 53.224-36.68 68.536-2.464 1.644-5.358 2.52-8.32 2.52z" fill="#cddce6"/><path d="m15 297h482v200h-482z" fill="#b96723"/><path d="m256 297h241v200h-241z" fill="#9b501e"/><path d="m497 282h-482c-8.284 0-15 6.716-15 15v200c0 8.284 6.716 15 15 15h482c8.284 0 15-6.716 15-15v-200c0-8.284-6.716-15-15-15zm-467 30h111v170h-111zm141 0h111v170h-111zm311 170h-170v-170h170z" fill="#d28c4b"/><path d="m497 282h-241v30h26v170h-26v30h241c8.284 0 15-6.716 15-15v-200c0-8.284-6.716-15-15-15zm-15 200h-170v-170h170z" fill="#b96723"/><path d="m15 197h482v100h-482z" fill="#5f6978"/><path d="m256 197h241v100h-241z" fill="#464b5a"/><path d="m497 182h-482c-8.284 0-15 6.716-15 15v115h512v-115c0-8.284-6.716-15-15-15zm-467 30h252v70h-252zm452 70h-170v-70h170z" fill="#d28c4b"/><path d="m497 182h-241v30h26v70h-26v30h256v-115c0-8.284-6.716-15-15-15zm-15 100h-170v-70h170z" fill="#b96723"/><path d="m437 452h-80c-8.284 0-15-6.716-15-15v-80c0-8.284 6.716-15 15-15h80c8.284 0 15 6.716 15 15v80c0 8.284-6.716 15-15 15z" fill="#50c8fa"/><path d="m216 427c-8.284 0-15-6.716-15-15v-30c0-8.284 6.716-15 15-15s15 6.716 15 15v30c0 8.284-6.716 15-15 15z" fill="#fff56e"/><path d="m96 427c-8.284 0-15-6.716-15-15v-30c0-8.284 6.716-15 15-15s15 6.716 15 15v30c0 8.284-6.716 15-15 15z" fill="#fff56e"/><circle cx="367" cy="247" fill="#ffc823" r="15"/><circle cx="427" cy="247" fill="#ffc823" r="15"/><g fill="#cddce6"><path d="m195 100c-8.284 0-15-6.716-15-15v-60c0-8.284 6.716-15 15-15s15 6.716 15 15v60c0 8.284-6.716 15-15 15z"/><path d="m195 150c-19.299 0-35-15.701-35-35s15.701-35 35-35 35 15.701 35 35-15.701 35-35 35z"/><path d="m75 100c-8.284 0-15-6.716-15-15v-60c0-8.284 6.716-15 15-15s15 6.716 15 15v60c0 8.284-6.716 15-15 15z"/><path d="m75 150c-19.299 0-35-15.701-35-35s15.701-35 35-35 35 15.701 35 35-15.701 35-35 35z"/></g><path d="m196 262h-80c-8.284 0-15-6.716-15-15s6.716-15 15-15h80c8.284 0 15 6.716 15 15s-6.716 15-15 15z" fill="#fff56e"/><path d="m240 30h-224.576c-8.077 0-15.027-6.207-15.407-14.275-.406-8.614 6.458-15.725 14.983-15.725h225c8.284 0 15 6.716 15 15 0 8.284-6.716 15-15 15z" fill="#5f6978"/></g></svg>