<svg xmlns="http://www.w3.org/2000/svg" viewBox="0 0 250 260.49"><defs><style>.cls-1{fill:#e8e8e8;}.cls-2{fill:#4c96d7;}.cls-3{fill:#2eff74;}</style></defs><g id="Layer_2" data-name="Layer 2"><g id="Layer_2-2" data-name="Layer 2"><circle class="cls-1" cx="91.42" cy="83.05" r="59.66"/><path class="cls-2" d="M109.9,224.23a94.64,94.64,0,1,1,94.64-94.63A94.74,94.74,0,0,1,109.9,224.23Zm0-175.84a81.21,81.21,0,1,0,81.21,81.21A81.3,81.3,0,0,0,109.9,48.39Z"/><path class="cls-3" d="M212.92,126.5c-21.54-9.22-28.72-21.7-49.53-32.45C136,79.89,114.7,82.36,99.27,90.62c-11.51,6.16-18.33,12.95-21.11,19.95a95.32,95.32,0,0,1,27.77,5.68c14.7,5.47,39.65,17.09,62.38,19.14,0,0-3.17,6.27-19.57,2.17s-33.92-12.42-46.22-16.87a72,72,0,0,0-25.75-4.1,23.25,23.25,0,0,0,4,14.24c13.88,22,46.39,44,71.05,45.24,58.84,2.87,98.21-40.34,98.21-40.34S238.53,137.48,212.92,126.5Z"/><path class="cls-3" d="M109.9,19.69A109.87,109.87,0,0,0,1.21,145.82,42,42,0,0,1,9.6,130c0-.13,0-.26,0-.39A100.32,100.32,0,1,1,109.9,229.91c-42.62,0-81.37-30.35-92.18-61.09-7-20,12.46-41.58,30.67-47.34a99.22,99.22,0,0,1,28.38-4.89,20,20,0,0,1,1.39-6,83.52,83.52,0,0,0-31.36,4.14C31.41,120,16.94,130.82,10.74,144.77a38.71,38.71,0,0,0-3.5,15.16,45.65,45.65,0,0,0,4.18,18.38A109.89,109.89,0,1,0,109.9,19.69Z"/><path class="cls-1" d="M66.2,14.64l1.7-.71,2,4.83a8,8,0,0,1-4,3.54,6.8,6.8,0,0,1-9.25-3.58c-1.53-3.66.15-7.51,4-9.11a6.71,6.71,0,0,1,5.56-.08l-.64,1.56a5.3,5.3,0,0,0-4.19.06,5.17,5.17,0,1,0,4,9.54,5.68,5.68,0,0,0,2.57-2Z"/><path class="cls-1" d="M91.42,14.9l-3.63-3.49-.82.2-3.26.63.79,4-1.89.37L80,3.45l5.14-1C88.6,1.77,91,3.1,91.56,6a4.22,4.22,0,0,1-2.08,4.72l4,3.81ZM89.68,6.32c-.37-1.88-1.84-2.7-4.25-2.23l-3.19.63,1.16,5.92L86.6,10C89,9.55,90.05,8.21,89.68,6.32Z"/><path class="cls-1" d="M115.06,11.74l0,1.67-9.74.17L105.13.16,114.59,0l0,1.67-7.55.12.07,4.12,6.73-.11,0,1.63-6.72.11.07,4.34Z"/><path class="cls-1" d="M137,14.85l-.31,1.64-9.58-1.8L129.62,1.5l9.31,1.75-.31,1.64-7.42-1.4-.76,4.06,6.61,1.24-.3,1.6-6.61-1.24-.8,4.26Z"/><path class="cls-1" d="M164.11,11.79l-5.06,12.43-1.46-.59-3.68-12.31-3.78,9.27-1.77-.72,5.06-12.43,1.45.59,3.69,12.31,3.77-9.27Z"/><path class="cls-1" d="M18.35,202l1.15,1.35L10.55,211l4.38,5.13-1.27,1.08-5.53-6.49Z"/><path class="cls-1" d="M30.51,228.41l-5-4.32-3.22,1.66-1.39-1.19,13-6.53,1.34,1.15-4.43,13.88-1.42-1.21Zm.52-1.58,2.24-6.75L27,223.33Z"/><path class="cls-1" d="M56.8,233.91,50,245.49l-1.26-.74-1.4-12.42L42.3,241l-1.53-.9,6.78-11.57,1.26.74,1.4,12.41,5-8.63Z"/><path class="cls-1" d="M67.3,238.79l5,1.74a6.71,6.71,0,1,1-4.45,12.66l-5-1.74Zm1,12.79a5,5,0,1,0,3.34-9.52L68.43,241l-3.34,9.52Z"/><path class="cls-1" d="M86.07,256.66l.88-1.38a6.15,6.15,0,0,0,3.83,2.16c2.14.33,3.19-.41,3.37-1.57.5-3.24-7.29-2.35-6.53-7.28.32-2.05,2.07-3.56,5.31-3.06a7,7,0,0,1,3.78,1.78l-.81,1.43a6.1,6.1,0,0,0-3.22-1.6c-2.09-.33-3.14.48-3.32,1.64-.5,3.24,7.28,2.37,6.53,7.24-.31,2-2.1,3.54-5.35,3A7.08,7.08,0,0,1,86.07,256.66Z"/><path class="cls-1" d="M107,253.77a6.54,6.54,0,0,1,6.46-7,6,6,0,0,1,4.78,2L117.11,250a4.46,4.46,0,0,0-3.54-1.51,5.16,5.16,0,0,0,.23,10.31,4.49,4.49,0,0,0,3.48-1.69l1.18,1.19a6,6,0,0,1-4.71,2.21A6.56,6.56,0,0,1,107,253.77Z"/><path class="cls-1" d="M138.08,253.82l-6.49,1.34-.66,3.56-1.8.37,2.81-14.29,1.72-.36,8.28,12-1.84.38Zm-.92-1.38-4-5.9-1.3,7Z"/><path class="cls-1" d="M159.58,240.81c1.1,2.7-.05,5.08-3.06,6.3l-2.85,1.17L155.2,252l-1.65.68-5.06-12.44,4.5-1.84C156,237.22,158.48,238.11,159.58,240.81Zm-1.65.68c-.73-1.78-2.24-2.34-4.36-1.48l-2.8,1.14,2.27,5.58,2.8-1.14C158,244.73,158.65,243.26,157.93,241.49Z"/><path class="cls-1" d="M167.22,231.43l1.54-.9,6.82,11.55L174,243Z"/><path class="cls-1" d="M187,217.27l8.46,10.4-1.13.92-12.11-3,6.31,7.76-1.38,1.13L178.66,224l1.14-.92,12.11,3-6.31-7.76Z"/><path class="cls-1" d="M206,206.93l1.12-1.29,4,3.43a7.08,7.08,0,0,1-1.81,4.69,6.87,6.87,0,0,1-10.35-9,6,6,0,0,1,4.71-2.27l.17,1.62a4.75,4.75,0,0,0-3.54,1.71,5.16,5.16,0,0,0,7.78,6.77,5,5,0,0,0,1.26-2.77Z"/></g></g></svg>