<svg xmlns="http://www.w3.org/2000/svg" viewBox="0 0 512 512" width="60" height="60"><circle cx="256" cy="256" r="246" data-original="#964102" class="active-path" data-old_color="#964102" fill="#F17B25"/><g fill="#fff"><path d="M213.226 133v55.989c-35.929 3.269-53.889 29.281-53.889 78.034h40.629c13.275 0 24.037 10.762 24.037 24.037v63.904c0 13.275-10.762 24.037-24.037 24.037h-74.681c-13.275 0-24.037-10.762-24.037-24.037v-84.091c.001-87.713 37.323-133.674 111.978-137.873zM399.974 133v55.989c-35.929 3.269-53.889 29.281-53.889 78.034h40.629c13.275 0 24.037 10.762 24.037 24.037v63.904c0 13.275-10.762 24.037-24.037 24.037h-74.681c-13.275 0-24.037-10.762-24.037-24.037v-84.091c.001-87.713 37.323-133.674 111.978-137.873z" data-original="#FFFFFF"/></g><path d="M256 512c-68.38 0-132.667-26.629-181.019-74.98C26.628 388.667 0 324.38 0 256S26.628 123.333 74.981 74.981C123.333 26.628 187.62 0 256 0c52.785 0 103.468 15.936 146.57 46.085 4.525 3.166 5.628 9.4 2.462 13.926s-9.4 5.628-13.926 2.462C351.382 34.688 304.663 20 256 20 125.869 20 20 125.869 20 256s105.869 236 236 236 236-105.869 236-236c0-47.623-14.114-93.512-40.817-132.707-3.11-4.564-1.931-10.785 2.634-13.895s10.785-1.931 13.895 2.634C496.685 154.561 512 204.344 512 256c0 68.38-26.628 132.667-74.981 181.02C388.667 485.371 324.38 512 256 512z" data-original="#000000" data-old_color="#000000"/><path d="M430.291 92.395a9.966 9.966 0 01-7.071-2.929l-.342-.343c-3.905-3.905-3.905-10.237 0-14.143 3.905-3.905 10.237-3.905 14.143 0l.342.343c3.905 3.905 3.905 10.237 0 14.143a9.976 9.976 0 01-7.072 2.929zM199.966 389h-74.681c-18.768 0-34.037-15.269-34.037-34.037v-84.091c0-46.007 10.171-81.858 30.231-106.558 20.425-25.149 51.104-39.044 91.185-41.299 2.742-.151 5.433.828 7.431 2.717s3.13 4.518 3.13 7.267v55.989a10 10 0 01-9.094 9.959c-18.053 1.643-41.689 9.64-44.515 58.075h30.349c18.768 0 34.037 15.269 34.037 34.037v63.903c.001 18.769-15.268 34.038-34.036 34.038zm3.26-245.104c-29.301 3.466-51.031 14.323-66.222 33.027-17.09 21.043-25.756 52.652-25.756 93.949v84.091c0 7.74 6.297 14.037 14.037 14.037h74.681c7.74 0 14.037-6.297 14.037-14.037V291.06c0-7.74-6.297-14.037-14.037-14.037h-40.629c-5.523 0-10-4.478-10-10 0-60.923 27.5-81.217 53.889-86.658v-36.469zM386.714 389h-74.681c-18.768 0-34.037-15.269-34.037-34.037V349.5c0-5.522 4.477-10 10-10s10 4.478 10 10v5.463c0 7.74 6.297 14.037 14.037 14.037h74.681c7.74 0 14.037-6.297 14.037-14.037V291.06c0-7.74-6.297-14.037-14.037-14.037h-40.629c-5.523 0-10-4.478-10-10 0-60.923 27.5-81.216 53.889-86.658v-36.468c-29.302 3.466-51.031 14.323-66.222 33.027-17.09 21.043-25.755 52.652-25.755 93.949v3.461c0 5.522-4.477 10-10 10s-10-4.478-10-10v-3.461c0-46.007 10.171-81.858 30.23-106.558 20.425-25.149 51.104-39.044 91.186-41.299 2.742-.151 5.433.828 7.431 2.717s3.13 4.518 3.13 7.267v55.989a10 10 0 01-9.094 9.959c-18.053 1.643-41.689 9.641-44.515 58.075h30.349c18.768 0 34.037 15.269 34.037 34.037v63.903c0 18.768-15.269 34.037-34.037 34.037z" data-original="#000000" data-old_color="#000000"/><path d="M287.997 320c-5.523 0-10-4.478-10-10v-.417c0-5.522 4.477-10 10-10s10 4.478 10 10V310c0 5.522-4.477 10-10 10z" data-original="#000000" data-old_color="#000000"/></svg>